<?xml version="1.0" encoding="UTF-8" standalone="no"?>
<!-- Created with Inkscape (http://www.inkscape.org/) -->

<svg
   xmlns:dc="http://purl.org/dc/elements/1.1/"
   xmlns:cc="http://creativecommons.org/ns#"
   xmlns:rdf="http://www.w3.org/1999/02/22-rdf-syntax-ns#"
   xmlns:svg="http://www.w3.org/2000/svg"
   xmlns="http://www.w3.org/2000/svg"
   xmlns:sodipodi="http://sodipodi.sourceforge.net/DTD/sodipodi-0.dtd"
   xmlns:inkscape="http://www.inkscape.org/namespaces/inkscape"
   width="284.32916mm"
   height="96.240112mm"
   viewBox="0 0 1007.4655 341.00827"
   id="svg4313"
   version="1.1"
   inkscape:version="0.91 r13725"
   sodipodi:docname="banner.svg"
   inkscape:export-filename="/home/skylar/Documents/Projects/Sources/NetsymsBusinessSSO/static/img/banner.png"
   inkscape:export-xdpi="100"
   inkscape:export-ydpi="100">
  <defs
     id="defs4315" />
  <sodipodi:namedview
     id="base"
     pagecolor="#ffffff"
     bordercolor="#666666"
     borderopacity="1.0"
     inkscape:pageopacity="0"
     inkscape:pageshadow="2"
     inkscape:zoom="0.35"
     inkscape:cx="-182.21178"
     inkscape:cy="379.07561"
     inkscape:document-units="px"
     inkscape:current-layer="g5212"
     showgrid="false"
     fit-margin-top="0"
     fit-margin-left="0"
     fit-margin-right="0"
     fit-margin-bottom="0" />
  <metadata
     id="metadata4318">
    <rdf:RDF>
      <cc:Work
         rdf:about="">
        <dc:format>image/svg+xml</dc:format>
        <dc:type
           rdf:resource="http://purl.org/dc/dcmitype/StillImage" />
        <dc:title></dc:title>
      </cc:Work>
    </rdf:RDF>
  </metadata>
  <g
     inkscape:label="Layer 1"
     inkscape:groupmode="layer"
     id="layer1"
     transform="translate(178.01846,-576.14381)">
    <g
       id="g4267"
       transform="matrix(6.5039021,0,0,6.5039021,-275.09335,-5820.9429)">
      <g
         transform="matrix(0.14276429,0,0,0.14276429,43.470448,903.45609)"
         id="layer1-6"
         inkscape:label="Layer 1">
        <path
           vector-effect="non-scaling-stroke"
           style="opacity:1;fill:none;fill-opacity:1;stroke:#0d87f6;stroke-width:5.20312166;stroke-miterlimit:4;stroke-dasharray:none;stroke-opacity:1"
           d="m -65.630838,578.85397 c -1.8198,0.1613 -3.4838,0.51056 -4.9588,1.06593 -23.6002,8.93076 -46.769512,89.48387 -57.142912,112.48752 -10.3728,23.0043 -55.4039,93.70952 -46.4738,117.31088 8.9306,23.60136 89.480312,46.77151 112.482512,57.14524 23.003,10.37372 93.7045,55.40739 117.3049,46.47623 23.6002,-8.93116 46.769988,-89.48394 57.142788,-112.48824 10.3736,-23.00365 55.4047,-93.70887 46.474,-117.31023 -8.9307,-23.60136 -89.479688,-46.77158 -112.482688,-57.14569 -21.5647,-9.72522 -85.0487,-49.91563 -112.346,-47.54164 z m 14.74,55.4924 c 2.6582,0.25235 7.7448,3.43575 9.5489,4.24965 2.0617,0.92941 9.2812,3.0076 10.0816,5.12273 0.8005,2.11559 -3.2367,8.45651 -4.1666,10.51915 -0.9297,2.06122 -3.0074,9.28179 -5.1227,10.08177 -2.1152,0.80063 -8.4569,-3.237 -10.5188,-4.1664 -2.0617,-0.93071 -9.2811,-3.00806 -10.0816,-5.1228 -0.8004,-2.11611 3.2368,-8.44389 4.1665,-10.50608 0.9298,-2.06265 3.0075,-9.28204 5.1229,-10.08189 0.2645,-0.0969 0.5901,-0.0969 0.9698,-0.0969 z m -28.7695,49.61898 c 2.6581,0.25366 7.7311,3.43471 9.5352,4.24835 2.0618,0.92941 9.2812,3.00676 10.0816,5.12313 0.8005,2.11507 -3.2367,8.45767 -4.1665,10.51876 -0.9298,2.06238 -3.0076,9.28107 -5.1228,10.08235 -2.1152,0.79998 -8.4433,-3.237 -10.5051,-4.16705 -2.0618,-0.92941 -9.2811,-3.00676 -10.0817,-5.12248 -0.8003,-2.11507 3.2369,-8.44401 4.1665,-10.5051 0.93,-2.06239 3.0075,-9.28237 5.1229,-10.08235 0.2646,-0.0976 0.5901,-0.0976 0.9699,-0.0976 z m 52.5939,0.99705 c 2.6581,0.24065 7.7312,3.43471 9.5352,4.249 2.0617,0.92941 9.2810994,3.00741 10.0815994,5.12247 0.8005,2.11637 -3.2366994,8.45703 -4.1664994,10.51942 -0.9298,2.06238 -3.0075,9.28171 -5.1229,10.08234 -2.1151,0.79933 -8.4433,-3.23764 -10.505,-4.16705 -2.0617,-0.93005 -9.2813,-3.00805 -10.0817,-5.12312 -0.8003,-2.11572 3.2368,-8.45767 4.1666,-10.51876 0.9298,-2.06239 3.0075,-9.28237 5.1227,-10.08235 0.2646,-0.078 0.5903,-0.0846 0.97,-0.0846 z m 114.108096,7.93671 c 2.6582,0.25366 7.7449,3.43536 9.5488,4.249 2.0619,0.93006 9.281192,3.00806 10.081792,5.12378 0.8005,2.11507 -3.2368,8.45637 -4.1666,10.51876 -0.9297,2.06108 -3.007392,9.28172 -5.122692,10.0817 -2.1154,0.80063 -8.4571,-3.23569 -10.518796,-4.1664 -2.0617,-0.92941 -9.2812,-3.00741 -10.0817,-5.12248 -0.8004,-2.11572 3.2369,-8.45832 4.1666,-10.52006 0.9298,-2.06174 3.0075,-9.28107 5.1227,-10.08235 0.2646,-0.078 0.5903,-0.0845 0.969896,-0.0845 z m -113.124596,38.70277 c 2.6583,0.25366 7.7449,3.43536 9.5489,4.24835 2.0618,0.93071 9.2810994,3.00806 10.0816994,5.12378 0.8005,2.11507 -3.2368,8.45767 -4.1665994,10.51941 -0.9297,2.06108 -3.0074,9.28172 -5.1228,10.08235 -2.1153,0.80063 -8.457,-3.237 -10.5187,-4.16705 -2.0617,-0.92941 -9.2812,-3.00806 -10.0816,-5.12248 -0.8005,-2.11637 3.2367,-8.45832 4.1665,-10.51941 0.9298,-2.06304 3.0075,-9.28237 5.1227,-10.083 0.2646,-0.078 0.5902,-0.0845 0.9699,-0.0845 z m -72.4293,6.94032 c 2.6582,0.24064 7.7313,3.44967 9.5352,4.262 2.0619,0.93071 9.2812,3.00806 10.0817,5.12313 0.8004,2.11637 -3.2368,8.44401 -4.1665,10.5064 -0.9297,2.06174 -3.0076,9.28172 -5.1228,10.0817 -2.1153,0.80063 -8.4433,-3.23699 -10.5051,-4.1664 -2.061702,-0.93136 -9.281202,-3.0087 -10.081702,-5.12377 -0.8004,-2.11507 3.2231,-8.44337 4.1528,-10.50511 0.9299,-2.06303 3.0076,-9.28171 5.122902,-10.08234 0.2646,-0.0976 0.6038,-0.0976 0.9835,-0.0976 z m 162.7404,2.97813 c 2.6582,0.24715 7.7313,3.44837 9.5354,4.26266 2.0617,0.92941 9.281,3.00676 10.0815,5.12248 0.8006,2.11506 -3.2368,8.44466 -4.1665,10.50575 -0.9297,2.06174 -3.0075,9.28172 -5.1227,10.083 -2.1154,0.80063 -8.4434,-3.23699 -10.5052,-4.1677 -2.0617,-0.92941 -9.2812,-3.00741 -10.0816,-5.12313 -0.8004,-2.11572 3.2231,-8.44401 4.1529,-10.5051 0.9298,-2.06174 3.0075,-9.28107 5.1227,-10.0817 0.2646,-0.0976 0.6039,-0.0976 0.9835,-0.0976 z m -191.523612,44.6597 c 2.6582,0.25365 7.7313,3.43406 9.5353,4.24835 2.0617,0.92941 9.28111,3.00675 10.08161,5.12312 0.8004,2.11507 -3.2231,8.45768 -4.1529,10.51876 -0.9297,2.06239 -3.00741,9.28107 -5.12281,10.0817 -2.1153,0.80063 -8.457,-3.23634 -10.5187,-4.1664 -2.0617,-0.92941 -9.2812,-3.00675 -10.0816,-5.12247 -0.8005,-2.11637 3.2367,-8.45768 4.1664,-10.51941 0.9298,-2.06174 3.0076,-9.28107 5.1228,-10.0817 0.2645,-0.078 0.5903,-0.0846 0.9699,-0.0846 z m 110.146712,0 c 2.6581,0.25365 7.7447994,3.43406 9.5487994,4.24835 2.0618,0.92941 9.2811998,3.00675 10.0816998,5.12312 0.8005,2.11507 -3.23680004,8.45768 -4.1665,10.51876 -0.9298,2.06239 -3.0074998,9.28107 -5.1227998,10.0817 -2.1154,0.80063 -8.4569994,-3.23634 -10.5187994,-4.1664 -2.0617,-0.92941 -9.2812,-3.00675 -10.0816,-5.12247 -0.8005,-2.11637 3.2368,-8.45768 4.1665,-10.51941 0.9298,-2.06174 3.0075,-9.28107 5.1228,-10.0817 0.2646,-0.078 0.5901,-0.0846 0.9699,-0.0846 z m 57.5526,5.95562 c 2.6581,0.25365 7.7449,3.43601 9.5489,4.249 2.0618,0.93071 9.2811,3.00741 10.0817,5.12312 0.8005,2.11442 -3.2368,8.45768 -4.1666,10.51877 -0.9297,2.06173 -3.0074,9.28236 -5.1227,10.08234 -2.1154,0.80129 -8.4571,-3.23699 -10.5188,-4.1664 -2.0617,-0.93005 -9.2812,-3.0087 -10.0817,-5.12312 -0.8004,-2.11637 3.2369,-8.45832 4.1666,-10.52006 0.9298,-2.06174 3.0074,-9.28107 5.1227,-10.0817 0.2646,-0.078 0.5903,-0.0845 0.9699,-0.0845 z m -41.6652008,45.64309 c 2.6582,0.24714 7.7313,3.44902 9.5352,4.262 2.0618008,0.93006 9.2812008,3.00741 10.0816008,5.12313 0.8005,2.11507 -3.2367,8.44401 -4.1665,10.50575 -0.9298,2.06174 -3.0074,9.28237 -5.1228008,10.08235 -2.1152,0.80063 -8.45690004,-3.23699 -10.5187,-4.16705 -2.0617998,-0.92876 -9.2811992,-3.00806 -10.0816992,-5.12312 -0.8003,-2.11572 3.2368994,-8.44337 4.1664994,-10.50576 0.9298,-2.06173 3.0075,-9.28107 5.1227998,-10.0817 0.2646,-0.0976 0.6039,-0.0976 0.9836,-0.0976 z"
           id="path4168"
           inkscape:connector-curvature="0">
          <desc
             id="desc4235">Netsyms wireframe logo</desc>
        </path>
      </g>
      <g
         id="g5212"
         transform="matrix(0.90682959,0,0,0.90682959,83.319126,94.844083)">
        <text
           sodipodi:linespacing="125%"
           id="text4385"
           y="1035.0699"
           x="-7.4161057"
           style="font-style:normal;font-weight:normal;font-size:20.50978851px;line-height:125%;font-family:sans-serif;letter-spacing:0px;word-spacing:0px;fill:#0d87f6;fill-opacity:1;stroke:none;stroke-width:0.2;stroke-linecap:butt;stroke-linejoin:miter;stroke-miterlimit:4;stroke-dasharray:none;stroke-opacity:1"
           xml:space="preserve"><tspan
             style="font-style:normal;font-variant:normal;font-weight:300;font-stretch:normal;font-size:11.1851902px;font-family:Ubuntu;-inkscape-font-specification:'Ubuntu Light';fill:#0d87f6;fill-opacity:1;stroke-width:0.2;stroke-miterlimit:4;stroke-dasharray:none"
             y="1035.0699"
             x="-7.4161057"
             id="tspan4387"
             sodipodi:role="line">Business Apps</tspan></text>
        <text
           sodipodi:linespacing="100%"
           id="text4385-7"
           y="1005.3621"
           x="-7.2147722"
           style="font-style:normal;font-weight:normal;font-size:20.50978851px;line-height:100%;font-family:sans-serif;letter-spacing:0px;word-spacing:0px;fill:#000000;fill-opacity:1;stroke:none;stroke-width:0.2;stroke-linecap:butt;stroke-linejoin:miter;stroke-miterlimit:4;stroke-dasharray:none;stroke-opacity:1"
           xml:space="preserve"><tspan
             style="font-style:normal;font-variant:normal;font-weight:300;font-stretch:normal;font-size:15.65926552px;line-height:100%;font-family:Ubuntu;-inkscape-font-specification:'Ubuntu Light';fill:#000000;fill-opacity:1;stroke:none;stroke-width:0.2;stroke-miterlimit:4;stroke-dasharray:none;stroke-opacity:1"
             y="1005.3621"
             x="-7.2147722"
             id="tspan4387-9"
             sodipodi:role="line">Netsyms</tspan><tspan
             style="font-style:normal;font-variant:normal;font-weight:300;font-stretch:normal;font-size:15.65926552px;line-height:100%;font-family:Ubuntu;-inkscape-font-specification:'Ubuntu Light';fill:#000000;fill-opacity:1;stroke:none;stroke-width:0.2;stroke-miterlimit:4;stroke-dasharray:none;stroke-opacity:1"
             y="1021.0214"
             x="-7.2147722"
             sodipodi:role="line"
             id="tspan5218">Technologies</tspan></text>
      </g>
    </g>
  </g>
</svg>
