<?xml version="1.0" encoding="UTF-8" standalone="no"?>
<svg
   xmlns:dc="http://purl.org/dc/elements/1.1/"
   xmlns:cc="http://creativecommons.org/ns#"
   xmlns:rdf="http://www.w3.org/1999/02/22-rdf-syntax-ns#"
   xmlns:svg="http://www.w3.org/2000/svg"
   xmlns="http://www.w3.org/2000/svg"
   version="1.1"
   id="svg2"
   viewBox="0 0 512.00001 512.00001"
   height="512"
   width="512">
  <defs
     id="defs4">
    <pattern
       id="pattern6179"
       width="8.6875"
       patternUnits="userSpaceOnUse"
       patternTransform="translate(201.25 133.47)"
       height="8.15625">
      <path
         id="path6174"
         style="opacity:.32394;stroke-opacity:0;fill:#eeeeec"
         d="m1.9375 0.5c-0.8781 0.7454-1.4375 1.8526-1.4375 3.0938 0 2.2424 1.82 4.0624 4.0625 4.0624 1.5819 0 2.9541-0.9292 3.625-2.25-0.7084 0.6014-1.6237 1-2.625 1-2.2425 0-4.0625-1.82-4.0625-4.0624 0-0.6607 0.1573-1.2922 0.4375-1.8438z" />
    </pattern>
  </defs>
  <metadata
     id="metadata7">
    <rdf:RDF>
      <cc:Work
         rdf:about="">
        <dc:format>image/svg+xml</dc:format>
        <dc:type
           rdf:resource="http://purl.org/dc/dcmitype/StillImage" />
        <dc:title></dc:title>
      </cc:Work>
    </rdf:RDF>
  </metadata>
  <g
     transform="translate(0,-540.36216)"
     id="layer1">
    <rect
       ry="50"
       rx="50"
       y="540.36218"
       x="0"
       height="512"
       width="512"
       id="rect4726"
       style="opacity:1;fill:#ffffff;fill-opacity:1;stroke:none;stroke-width:20;stroke-miterlimit:4;stroke-dasharray:none;stroke-opacity:0.74509804" />
    <rect
       style="fill:#4caf50;fill-opacity:1;stroke:#4caf50;stroke-opacity:1;stroke-width:25.00000004;stroke-miterlimit:4;stroke-dasharray:none"
       id="rect4144"
       width="543.95947"
       height="15"
       x="472.15271"
       y="374.59375"
       rx="10"
       ry="10"
       transform="matrix(0.70710678,0.70710678,-0.70710678,0.70710678,0,0)" />
    <rect
       transform="matrix(0.70710678,0.70710678,-0.70710678,0.70710678,0,0)"
       ry="10"
       rx="10"
       y="373.31586"
       x="471.13791"
       height="17.555813"
       width="257.55582"
       id="rect4211"
       style="fill:#2196f3;fill-opacity:1;stroke:#2196f3;stroke-width:25;stroke-miterlimit:4;stroke-dasharray:none;stroke-opacity:1" />
    <rect
       transform="matrix(-0.70710678,0.70710678,-0.70710678,-0.70710678,0,0)"
       ry="10"
       rx="10"
       y="-751.63245"
       x="110.11401"
       height="15"
       width="543.95947"
       id="rect4142"
       style="fill:#795548;fill-opacity:1;stroke:#ff5722;stroke-opacity:1;stroke-width:25.00000004;stroke-miterlimit:4;stroke-dasharray:none" />
    <rect
       style="fill:#607d8b;fill-opacity:1;stroke:#607d8b;stroke-width:25;stroke-miterlimit:4;stroke-dasharray:none;stroke-opacity:1"
       id="rect4241"
       width="257.55582"
       height="17.555811"
       x="395.76828"
       y="-752.91034"
       rx="10"
       ry="10"
       transform="matrix(-0.70710678,0.70710678,-0.70710678,-0.70710678,0,0)" />
    <path
       d="m 314.83612,724.61503 c 0,-32.47491 -26.37082,-58.81687 -58.85538,-58.81687 -32.4749,0 -58.81686,26.34196 -58.81686,58.81687 0,23.22249 13.21911,41.18817 33.03334,52.86683 0,0 -9.14651,34.98779 -6.76841,36.13351 l 13.11319,6.33516 -1.22274,5.59381 14.34557,12.40074 -1.95445,11.66902 -1.47308,2.38771 0.21183,4.51549 4.19775,5.72861 -0.97241,9.72418 -8.19336,8.56884 2.87876,12.7377 4.82359,24.40674 12.39109,9.2428 17.27247,-8.28001 0.36585,-109.54627 c 0,0 7.89489,1.04943 10.83139,-0.35625 3.14834,-1.5212 -9.4546,-30.66486 -9.4546,-30.66486 20.19935,-9.3198 34.24646,-29.76947 34.24646,-53.46375 z M 273.9753,704.93559 c 0,9.53162 -8.00081,17.24357 -17.8694,17.24357 -9.87822,0 -17.90789,-7.71195 -17.90789,-17.24357 0,-9.52199 8.02967,-17.26282 17.90789,-17.26282 9.86859,0 17.8694,7.74082 17.8694,17.26282 z"
       style="fill:#ff9800;fill-opacity:1;stroke:#ffffff;stroke-width:4.8;stroke-miterlimit:4;stroke-dasharray:none"
       id="path4516" />
  </g>
</svg>
